HIERARCHY
ROOT Hips
{
	OFFSET -14.64140 90.27770 -84.91600
	CHANNELS 6 Xposition Yposition Zposition Zrotation Xrotation Yrotation
	JOINT Spine
	{
		OFFSET 0.00000 13.20850 -1.60436
		CHANNELS 3 Zrotation Xrotation Yrotation
		JOINT Spine1
		{
			OFFSET 0.00000 8.61716 0.00000
			CHANNELS 3 Zrotation Xrotation Yrotation
			JOINT Spine2
			{
				OFFSET 0.00000 8.61717 0.00000
				CHANNELS 3 Zrotation Xrotation Yrotation
				JOINT Spine3
				{
					OFFSET 0.00000 8.61717 0.00000
					CHANNELS 3 Zrotation Xrotation Yrotation
					JOINT Neck
					{
						OFFSET 0.00000 11.07920 1.10792
						CHANNELS 3 Zrotation Xrotation Yrotation
						JOINT Neck1
						{
							OFFSET 0.00000 7.08032 0.00000
							CHANNELS 3 Zrotation Xrotation Yrotation
							JOINT Head
							{
								OFFSET 0.00000 7.08031 0.00000
								CHANNELS 3 Zrotation Xrotation Yrotation
								End site
								{
									OFFSET 0.00000 0.00000 0.00000
								}
							}
						}
					}
					JOINT RightShoulder
					{
						OFFSET -0.01000 7.91373 5.19711
						CHANNELS 3 Zrotation Xrotation Yrotation
						JOINT RightArm
						{
							OFFSET -18.41580 0.00000 0.00000
							CHANNELS 3 Zrotation Xrotation Yrotation
							JOINT RightForeArm
							{
								OFFSET -29.11090 0.00000 0.00000
								CHANNELS 3 Zrotation Xrotation Yrotation
								JOINT RightHand
								{
									OFFSET -24.65040 0.00000 0.00000
									CHANNELS 3 Zrotation Xrotation Yrotation
									JOINT RightHandThumb1
									{
										OFFSET -5.35114 -0.85590 3.97906
										CHANNELS 3 Zrotation Xrotation Yrotation
										JOINT RightHandThumb2
										{
											OFFSET -4.52789 0.00000 0.00000
											CHANNELS 3 Zrotation Xrotation Yrotation
											JOINT RightHandThumb3
											{
												OFFSET -2.46976 0.00000 0.00000
												CHANNELS 3 Zrotation Xrotation Yrotation
												End site
												{
													OFFSET 0.00000 0.00000 0.00000
												}
											}
										}
									}
									JOINT RightHandIndex1
									{
										OFFSET -14.26970 0.00000 2.88139
										CHANNELS 3 Zrotation Xrotation Yrotation
										JOINT RightHandIndex2
										{
											OFFSET -5.48836 0.00000 0.00000
											CHANNELS 3 Zrotation Xrotation Yrotation
											JOINT RightHandIndex3
											{
												OFFSET -3.01859 0.00000 0.00000
												CHANNELS 3 Zrotation Xrotation Yrotation
												End site
												{
													OFFSET 0.00000 0.00000 0.00000
												}
											}
										}
									}
									JOINT RightHandMiddle1
									{
										OFFSET -14.26970 0.00000 -0.09147
										CHANNELS 3 Zrotation Xrotation Yrotation
										JOINT RightHandMiddle2
										{
											OFFSET -6.17441 0.00000 0.00000
											CHANNELS 3 Zrotation Xrotation Yrotation
											JOINT RightHandMiddle3
											{
												OFFSET -3.56743 0.00000 0.00000
												CHANNELS 3 Zrotation Xrotation Yrotation
												End site
												{
													OFFSET 0.00000 0.00000 0.00000
												}
											}
										}
									}
									JOINT RightHandRing1
									{
										OFFSET -12.69180 0.00000 -3.06433
										CHANNELS 3 Zrotation Xrotation Yrotation
										JOINT RightHandRing2
										{
											OFFSET -5.62556 0.00000 0.00000
											CHANNELS 3 Zrotation Xrotation Yrotation
											JOINT RightHandRing3
											{
												OFFSET -3.56744 0.00000 0.00000
												CHANNELS 3 Zrotation Xrotation Yrotation
												End site
												{
													OFFSET 0.00000 0.00000 0.00000
												}
											}
										}
									}
									JOINT RightHandPinky1
									{
										OFFSET -11.11390 0.00000 -6.03719
										CHANNELS 3 Zrotation Xrotation Yrotation
										JOINT RightHandPinky2
										{
											OFFSET -4.52789 0.00000 0.00000
											CHANNELS 3 Zrotation Xrotation Yrotation
											JOINT RightHandPinky3
											{
												OFFSET -2.46976 0.00000 0.00000
												CHANNELS 3 Zrotation Xrotation Yrotation
												End site
												{
													OFFSET 0.00000 0.00000 0.00000
												}
											}
										}
									}
								}
							}
						}
					}
					JOINT LeftShoulder
					{
						OFFSET 0.01000 7.91373 5.19711
						CHANNELS 3 Zrotation Xrotation Yrotation
						JOINT LeftArm
						{
							OFFSET 18.41580 0.00000 0.00000
							CHANNELS 3 Zrotation Xrotation Yrotation
							JOINT LeftForeArm
							{
								OFFSET 29.11090 0.00000 0.00000
								CHANNELS 3 Zrotation Xrotation Yrotation
								JOINT LeftHand
								{
									OFFSET 24.65040 0.00000 0.00000
									CHANNELS 3 Zrotation Xrotation Yrotation
									JOINT LeftHandThumb1
									{
										OFFSET 5.35114 -0.85590 3.97906
										CHANNELS 3 Zrotation Xrotation Yrotation
										JOINT LeftHandThumb2
										{
											OFFSET 4.52789 0.00000 0.00000
											CHANNELS 3 Zrotation Xrotation Yrotation
											JOINT LeftHandThumb3
											{
												OFFSET 2.46977 0.00000 0.00000
												CHANNELS 3 Zrotation Xrotation Yrotation
												End site
												{
													OFFSET 0.00000 0.00000 0.00000
												}
											}
										}
									}
									JOINT LeftHandIndex1
									{
										OFFSET 14.26970 0.00000 2.88139
										CHANNELS 3 Zrotation Xrotation Yrotation
										JOINT LeftHandIndex2
										{
											OFFSET 5.48836 0.00000 0.00000
											CHANNELS 3 Zrotation Xrotation Yrotation
											JOINT LeftHandIndex3
											{
												OFFSET 3.01859 0.00000 0.00000
												CHANNELS 3 Zrotation Xrotation Yrotation
												End site
												{
													OFFSET 0.00000 0.00000 0.00000
												}
											}
										}
									}
									JOINT LeftHandMiddle1
									{
										OFFSET 14.26970 0.00000 -0.09147
										CHANNELS 3 Zrotation Xrotation Yrotation
										JOINT LeftHandMiddle2
										{
											OFFSET 6.17440 0.00000 0.00000
											CHANNELS 3 Zrotation Xrotation Yrotation
											JOINT LeftHandMiddle3
											{
												OFFSET 3.56744 0.00000 0.00000
												CHANNELS 3 Zrotation Xrotation Yrotation
												End site
												{
													OFFSET 0.00000 0.00000 0.00000
												}
											}
										}
									}
									JOINT LeftHandRing1
									{
										OFFSET 12.69180 0.00000 -3.06433
										CHANNELS 3 Zrotation Xrotation Yrotation
										JOINT LeftHandRing2
										{
											OFFSET 5.62556 0.00000 0.00000
											CHANNELS 3 Zrotation Xrotation Yrotation
											JOINT LeftHandRing3
											{
												OFFSET 3.56744 0.00000 0.00000
												CHANNELS 3 Zrotation Xrotation Yrotation
												End site
												{
													OFFSET 0.00000 0.00000 0.00000
												}
											}
										}
									}
									JOINT LeftHandPinky1
									{
										OFFSET 11.11390 0.00000 -6.03719
										CHANNELS 3 Zrotation Xrotation Yrotation
										JOINT LeftHandPinky2
										{
											OFFSET 4.52789 0.00000 0.00000
											CHANNELS 3 Zrotation Xrotation Yrotation
											JOINT LeftHandPinky3
											{
												OFFSET 2.46976 0.00000 0.00000
												CHANNELS 3 Zrotation Xrotation Yrotation
												End site
												{
													OFFSET 0.00000 0.00000 0.00000
												}
											}
										}
									}
								}
							}
						}
					}
					JOINT pCube4
					{
						OFFSET 0.00000 10.91090 1.10792
						CHANNELS 3 Zrotation Xrotation Yrotation
						End site
						{
							OFFSET 0.00000 0.00000 0.00000
						}
					}
				}
			}
		}
	}
	JOINT RightUpLeg
	{
		OFFSET -9.98441 0.00000 0.00000
		CHANNELS 3 Zrotation Xrotation Yrotation
		JOINT RightLeg
		{
			OFFSET 0.00000 -42.11790 0.00000
			CHANNELS 3 Zrotation Xrotation Yrotation
			JOINT RightFoot
			{
				OFFSET 0.00000 -45.00020 -0.00001
				CHANNELS 3 Zrotation Xrotation Yrotation
				JOINT RightForeFoot
				{
					OFFSET 0.00000 -3.74820 0.00000
					CHANNELS 3 Zrotation Xrotation Yrotation
					JOINT RightToeBase
					{
						OFFSET 0.00000 0.06325 14.43120
						CHANNELS 3 Zrotation Xrotation Yrotation
						End site
						{
							OFFSET 0.00000 0.00000 0.00000
						}
					}
				}
			}
		}
	}
	JOINT LeftUpLeg
	{
		OFFSET 9.98441 0.00000 0.00000
		CHANNELS 3 Zrotation Xrotation Yrotation
		JOINT LeftLeg
		{
			OFFSET 0.00000 -42.11800 0.00000
			CHANNELS 3 Zrotation Xrotation Yrotation
			JOINT LeftFoot
			{
				OFFSET 0.00000 -45.00070 0.00000
				CHANNELS 3 Zrotation Xrotation Yrotation
				JOINT LeftForeFoot
				{
					OFFSET 0.00000 -3.74824 0.00000
					CHANNELS 3 Zrotation Xrotation Yrotation
					JOINT LeftToeBase
					{
						OFFSET 0.00000 0.06325 14.43110
						CHANNELS 3 Zrotation Xrotation Yrotation
						End site
						{
							OFFSET 0.00000 0.00000 0.00000
						}
					}
				}
			}
		}
	}
}
MOTION
Frames: 4
Frame Time: 0.050000
0.0353034132702992 0.02477964784324138 0.025075921290546744 0.044326191546826044 -0.011561993773359279 -0.041331256794871554 -0.07439452079133296 3.079563435239777 -1.3001725758970422 -0.4661365345390726 3.3694011035164317 0.31303761003984887 -0.44088420776181125 -1.2153575093677487 -1.6411288638737485 -0.8558952475479136 -0.6579522215245335 -0.730004328210475 -1.4326644576534482 10.962466968620042 2.296637685926539 0.1506057925827789 -0.5823053962627497 5.737810914680918 -0.5881781444969354 -15.42279480736579 0.4729140630648821 -1.8036866127267697 1.410301365822136 -12.838115282373117 70.54303798962722 5.80369441426818 14.358026441190331 -0.9402269815047184 8.631391186837632 83.37406249260177 21.230887125182196 -0.45256165144869065 -2.656747309745858 4.544420612477024 -0.15222430264808282 -1.6092907637942895 -0.03913914543542885 -0.02699576787303884 -56.22011419280081 -0.0077419783319879485 -0.0038175921373091413 -56.26020077650081 -38.80254960877004 0.0314080455908681 0.01649207211419158 0.0029220942221504904 -0.04517771917216642 0.02130895174884092 -0.03008875430018447 -0.04424690714884282 -0.007564594856014105 -36.707936491035305 -0.011642028561189684 -0.019567523268376737 -0.000289768484774743 0.010092630928980441 -0.028768107641751122 -0.043660170949827534 -0.04071543493615135 -0.02259100619296843 -19.776703642636488 -0.031159880853197954 -0.03749920523350102 0.043201829441375385 -0.008306161904033419 -0.016701364267542207 -0.0009702902502181103 0.04717698337707768 -0.013475876495386048 24.015263590286807 -0.033707047495717214 -0.009758693360119803 28.843074112047294 0.015041893648189532 -0.004998789024856384 28.888238858401337 0.005543683263527262 0.04097542765667083 7.865326428388128 2.038883346962453 11.237196146816562 -63.428770770506475 13.35024643837106 -36.706018863019494 11.957489552536817 -7.906825691330851 -70.31760749269274 -19.44668119114907 -0.10220629118394761 2.2120548322111993 -0.441557570858733 0.09213909027678567 -8.077482380113882 -0.025810068225961692 0.024702641314998195 44.601964214026935 -0.02577373479852693 -0.017362306762026845 44.614040690011045 12.461188206211592 0.032335033132103196 -0.011339960470966073 -0.020233258374376274 0.0479871491621229 0.003973781568776302 0.02542810635483095 -0.0002924738675054828 -0.035343205008317995 11.123751520476043 -0.013544664178539154 -0.015110208889911745 -0.039639340930012215 -0.046417208996307906 0.03124477120943605 0.031842369884521944 -0.04239407239379365 0.020328121951846016 4.74113958990756 0.04897760470726423 -0.042510970943965935 0.04800248337215946 0.04092022723364959 -0.02499227961908399 0.012483339546674362 -0.042924355807062956 0.019388109214114824 -5.610731900818837 0.03629080189797659 0.010256218298384707 -6.6926890365891705 4.780845234943969e-05 -0.013781896212548786 -6.732476924978418 -0.03415161165964386 0.047845600967621686 0.010334078213159965 0.021804273309378928 -0.02103450644339492 8.016674887451936 3.5225589524463774 -19.262436641468934 0.005726873021639506 10.442460755285078 -0.030144895603611523 -5.594413652972306 -15.64014775545777 3.171606491770253 -0.044483324212073114 -0.018482172130759582 0.009613415629046012 0.019413887801842705 4.678421212164147 -0.046634602949774 12.507955772655196 -8.2115656381974 6.928356011835878 -0.017362931875571874 46.405878157251166 0.0074910834095669905 -4.277405870454113 -14.749762591812408 -3.825173129831852 0.012082879411115275 0.018820704921435203 -0.03306495808748866 0.01891092677440772 -10.759758319484133 0.00956998865774268 
0.02723821854402407 0.01311635571829465 0.007853137727923785 -0.011910616836678628 -0.028245063511639912 0.0018226975299517744 -0.1610669517352581 3.246533834873612 -1.2492691600064607 -0.5166658264515408 3.333049634836656 0.29472520639773964 -0.4592121614844055 -1.1666647777101915 -1.726665097651513 -0.7964073711141906 -0.6077557817551783 -0.8252438803743788 -1.4680139675544275 10.715280526789433 2.4186633668057573 0.12239039996384876 -0.6174964530979768 5.977402947430128 -0.6156367591038687 -15.596191028631834 0.4826196320408653 -1.6563886259734069 1.402572926656127 -12.770853324082426 70.71503623238617 5.046333445714504 13.89582547360215 -1.4889928446139156 8.636040216531615 82.59163749163953 20.634117030574487 -0.4262623252135535 -2.4036278468937895 4.487976960079766 -0.11111209493305879 -1.633884840423897 -0.015841127426880545 -0.021591846785358974 -56.18618575504134 -0.003794896270880233 -0.02739989394657516 -56.24435552960053 -38.75546591724141 -0.011967552099355029 0.035997747740949326 -0.025662147116888388 -0.010374412879121431 0.0345487129038754 -0.03240313960476308 -0.04507277824818224 -0.01760964106295098 -36.65197102027971 -0.008241927292184847 -0.037583062200026676 0.0029474240946750956 -0.016478542779568648 0.03874341464172426 -0.033300991984344136 -0.011075961390967523 -0.006008033902502423 -19.7725697531946 0.0120640238268413 0.0016572959124380986 0.020109297875766603 0.03904371923959942 -0.0028515510806523506 -0.016838372416183727 -0.029950942258149614 0.033335655733118176 24.061638255436424 0.016317884161233448 0.015131584700175001 28.8984645951097 -0.012007570006399846 -0.014139483245207063 28.81561020831971 -0.011934037836476142 -0.017997503704590075 7.656719799614803 2.0090801825203677 11.001194467645801 -63.42957739528461 14.197662721824642 -36.01899601979881 12.838074918937538 -8.650347830249798 -69.72075046688741 -18.4957036395726 -0.30345019971559395 2.586444388075526 -0.5066610922663519 0.031733750282897204 -8.14697976671607 -0.02765441157520918 -0.0423044687321771 44.54727532986249 -0.03211599150615472 -0.025231957110655453 44.5651003292246 12.447131783101767 0.02014849112912208 -0.010486199054673299 -0.014812965348538466 0.0043811325241109944 0.004201446366773953 0.020209650226300755 0.008480525387832734 0.0066381927332414626 11.130140293037938 -0.0020268572767384837 0.025875363119015667 -0.013075257704576241 -0.0256449582006725 -0.00617484271675635 -0.006772936344847123 0.010879666956688587 0.03481183852790519 4.759110656000024 -0.002247239543601826 -0.0064848133569557044 -0.01187968574957535 0.013195869163441648 -0.04312556049762946 0.04612978525737368 -0.030728539169248562 0.04830764453418269 -5.636939901504265 0.016190536242702006 -0.010844431413594723 -6.727106302511642 -0.0403295697046509 -0.0076561787125589 -6.727826993422621 0.017504331494208495 0.01731130836091987 0.005764634521936276 0.029218477754068647 0.038797964436593425 8.00176602975448 3.4442067759763098 -19.20357444935829 0.03603435053682232 10.38336990711264 0.024414702646640325 -5.590861955236326 -15.659396983152215 3.1584116482642584 0.03610876304691871 -0.019145661321624437 -0.021211416971856693 -0.022849751086466037 4.6801596607624285 0.003081389892045458 12.451201578216365 -8.195272820333471 6.86756394553875 0.013948379828711803 46.424245885250286 -0.036461834917016434 -4.32787639017953 -14.790539492707476 -3.793761797340027 -0.046077393210922295 0.006372275448867916 -0.04765899609022175 -0.0365290694653952 -10.713894521243715 0.002444167385150042 
0.03525810538274652 0.01436569679744841 -0.018369851375630793 0.020987236778253426 0.007930616113614385 0.007402350080520132 -0.26797636871294495 3.3255651378585838 -1.2775996260548592 -0.5438323481790411 3.330832949430049 0.24700910549934335 -0.50083013418852 -1.240294762698709 -1.7787022538743864 -0.8810402029563896 -0.6185609506509975 -0.7612744837221156 -1.566876729888628 10.562493138846897 2.55235532974731 0.09998424293722943 -0.7563571291393585 6.354989100331855 -0.6937673113064631 -15.757206729425532 0.5328514203800757 -1.5880918739195504 1.3839974527243746 -12.729514301336517 70.74573260502014 3.9970120989356452 13.541855567061814 -2.294327355703487 8.733207882202448 81.17664949869442 20.965049141079408 -0.4071333881201252 -2.116314741051049 4.549744573990155 -0.1435810364229514 -1.6138183153320196 -0.009085930834585892 0.01695032821917882 -56.21544099192475 -0.02588821955785834 -0.007654725940190048 -56.24484133781635 -38.74954661188561 -0.04607352262803178 -0.041003792381208735 0.025937946798120285 0.017524810184215204 -0.0440604217176621 -0.0034913448848379273 0.039810790213159065 0.02688104361360208 -36.665243270456386 0.0016247032367759978 -0.029185675111795286 0.005791323191101147 -0.038656103350946734 0.03638049985190119 -0.01659470448596293 0.0026105150453745443 0.04715807190737957 -19.776821708498566 -0.004700324175570857 -0.034906827795231875 0.035851082878777446 -0.0015862175945175474 -0.011013451096237753 0.04936289111792061 0.021518939953791054 -0.040165987655368066 24.005155211461176 0.018654345267903875 0.011557155600530975 28.83448342372583 -0.002918423138625204 -0.04109701139928372 28.861878564698632 -0.04104921653574816 0.02442467954599222 7.499903283017856 2.030630508656287 10.947248924441396 -63.95317807876443 14.427463923482854 -35.29422467446208 11.639527506889019 -8.079816701402624 -68.14755688723491 -18.652060633787585 -0.28198228510850154 2.841827521243844 -0.4489485168684312 0.05436926900354632 -8.153343132323347 -0.02310830237992719 -0.0011911761835679997 44.61329281249275 0.013423839144427378 0.015349208209877487 44.61246054566027 12.46654322663392 -0.012979906250219941 0.006206365052841991 0.012244544507047771 0.03639319301976439 0.04269465437252813 -0.03210141124230715 0.010485761172215651 -0.034183479352806155 11.093554514596576 0.012933759082498447 -0.01783198849000371 0.014770590927211686 0.021195629474396457 -0.001251283651911468 0.009189009795645568 -0.04879135566601071 0.028213594046019298 4.740012865909066 -0.0450893399349384 0.00943697470919256 0.00567146796023282 0.019863358234845342 0.04078843639515527 -0.02629812368785993 0.03602015212004302 0.0355780684592621 -5.588835604639097 0.035519967504016765 0.003943034425009263 -6.7353123122806124 0.02690266664565642 -0.004074114188188874 -6.732337909538433 -0.04653479816846811 0.001960754714674217 -0.023331380568380827 0.003170550828505052 0.04535787856408041 8.052297208085118 3.5137001229838547 -19.24628498998237 -0.034302976550667816 10.407394497094993 -0.01645318810542461 -5.603749083277008 -15.691597068943839 3.2331383538535934 -0.004645182978464169 -0.02115603557129784 0.04492015071397131 0.022188948698221543 4.6803130131770025 0.008283127387975889 12.453238253520883 -8.239221257565092 6.917944968745742 -0.024224680773658264 46.38371275357557 -0.018277046034028733 -4.317227928546114 -14.798195536409336 -3.8265522620479797 0.025316709906086806 -0.036824153742854054 -0.00528961340543986 -0.04877661820139624 -10.73465213006943 0.03043275577300851 
0.02617691509210623 0.003255772635029493 -0.049190231090692 -0.02486038519081188 -0.011722411432387453 0.03082544946894163 -0.32729588978323576 3.3725830125021314 -1.30359051024564 -0.4752920190511979 3.408851106438198 0.29304826929778044 -0.5467549433795423 -1.2637080791202133 -1.8667663780918566 -0.8971899548268998 -0.6604397227426321 -0.8043814637117384 -1.5367929767018331 10.543215090193423 2.6265783602801136 0.0665699696617382 -0.8074015967128434 6.549730685211357 -0.7100007502505908 -15.828604555768479 0.5607889039872375 -1.7614416948441636 1.4428258598425125 -12.703093284762678 70.46193110109395 1.399659770960627 13.802704444715463 -3.706966217145746 8.583931445353738 79.44193374238087 21.227028824308373 -0.39905747089641147 -1.742345577026942 4.479901735343988 -0.09745098509701534 -1.6097240578816765 0.0462959349692807 0.0488287924529778 -56.21414951644198 0.02061320561060682 0.005953587356283427 -56.242423458903794 -38.7499525610646 0.03667166310042808 -0.007365240214143375 0.03768707965114351 0.009342018941556859 0.00930830171980522 -0.04159334089942288 0.01564542857395846 0.014871653850834488 -36.71519018200741 -0.0037759126240933766 -0.04589265941924835 0.03749825778237483 0.034368044160868874 -0.001296200661646438 -0.022187380264513154 -0.044915681174686105 -0.015012703749650504 -19.80794852847526 -0.042404127224483515 -0.012488555429234114 -0.015539506135039072 -0.034687531702265476 -0.014999280782869698 -0.017744529443597803 0.026614300101090112 -0.042786391458078915 24.07231484522202 0.019864629842237684 -0.03200346425838306 28.85638895048384 0.013031968730056616 -0.04664059254135802 28.85792464035272 -0.008182196216025185 -0.0021523447679981187 7.475365708265992 1.9873796208667638 10.831952593497265 -64.5111761878238 13.652368729326078 -35.13274910264438 10.204804451057697 -7.155542324350406 -66.54109251671615 -18.792451900962018 0.026309661656450198 2.8431870837956805 -0.5070597530636706 0.055621479897111276 -8.136380023475365 -0.0077953839314215964 -0.0003201812036192051 44.57031554355179 -0.03154567710823162 0.041909119757504804 44.558874970683554 12.469353126107464 0.026771042839052517 0.021213221856343376 -0.01978038456574134 -0.007431194433247391 -0.013365006160308286 -0.04835722914991908 -0.0017559465233555277 -0.003574964135154987 11.062167147671081 0.044934272088303154 0.006063073793671249 -0.01655060917997279 -0.001187878685213864 -0.011159488687799821 0.046531395223092936 -0.04595682264106874 -0.015509245601587226 4.77550048864639 -0.005887964628784824 0.03665868043712348 0.0020285700774484963 -0.030742119734521595 -0.03499614622697515 -0.007914519938796797 0.036373385776080784 -0.023156012975496992 -5.631382697041135 -0.023191256976353252 -0.00444305427459931 -6.728137064795757 0.03242507629867144 -0.008947897055277683 -6.71030858026409 -0.014939287761308468 -0.012279422553840584 0.04781367087297549 0.029748717178398245 0.03587212184580611 8.075170119045687 3.4816445433963095 -19.197904339635244 -0.020592850254880828 10.393800099447134 -0.016975350874142137 -5.587965770977342 -15.685149257375546 3.1899699251343407 0.014423242994536624 -0.00029879412304811153 0.00777518682410387 0.006042071366339477 4.691371380564372 0.01715308918714045 12.467962519719347 -8.203450566321028 6.872727048009595 0.04915261909157349 46.36050597645413 0.024712999840404974 -4.368738072590818 -14.785716077332928 -3.8816215502267286 0.005199274990380559 0.012573030253307292 0.0018805058356343694 0.03181597252257834 -10.794872097577485 0.03456919774502835 
